<?xml version="1.0" encoding="utf-8"?>
<!DOCTYPE svg PUBLIC "-//W3C//DTD SVG 20010904//EN" "http://www.w3.org/TR/2001/REC-SVG-20010904/DTD/svg10.dtd">
<svg version="1.0" xmlns="http://www.w3.org/2000/svg" width="602pt" height="377pt" viewBox="0 0 602 377" style="" preserveAspectRatio="xMidYMid meet">
<g fill="#FFF" stroke="#000000FF">
<path d="M 317.997 133.472 C 308.924 139.745 294.750 149.562 286.500 155.287 C 278.250 161.013 268.242 167.903 264.259 170.599 C 260.231 173.326 257.218 176.044 257.469 176.726 C 257.716 177.401 272.796 195.288 290.980 216.476 L 324.040 255.000 343.563 255.000 L 363.085 255.000 357.390 247.750 C 346.781 234.244 346.462 234.000 339.408 234.000 L 333.208 234.000 310.604 207.567 C 298.172 193.029 288.000 180.737 288.000 180.251 C 288.000 179.765 291.263 177.109 295.250 174.350 C 299.238 171.590 306.100 166.851 310.500 163.818 C 314.900 160.785 321.188 156.445 324.472 154.174 C 327.757 151.903 330.758 150.372 331.140 150.772 C 333.647 153.395 354.994 180.352 354.971 180.865 C 354.956 181.214 349.560 185.100 342.982 189.500 C 336.403 193.900 331.129 197.981 331.260 198.570 C 331.392 199.158 340.725 210.497 352.000 223.766 L 372.500 247.892 392.758 247.696 L 413.015 247.500 407.395 241.000 C 394.152 225.682 395.917 227.000 388.650 227.000 L 382.153 227.000 372.327 215.474 C 366.922 209.134 362.500 203.338 362.500 202.594 C 362.500 201.850 367.425 197.887 373.444 193.788 C 379.464 189.688 384.527 185.918 384.697 185.408 C 384.867 184.899 378.861 176.836 371.350 167.491 C 349.762 140.630 336.800 124.601 335.602 123.283 C 334.753 122.350 330.645 124.728 317.997 133.472 "/></g>
<g fill="#FFF" stroke="#000000FF">
<path d="M 215.145 145.080 C 206.265 153.373 199.000 160.525 199.000 160.971 C 199.000 161.669 203.789 167.375 210.349 174.494 C 218.910 183.785 230.189 196.983 230.149 197.662 C 230.121 198.123 225.041 201.443 218.859 205.039 L 207.620 211.578 198.330 232.539 C 193.220 244.068 189.030 253.838 189.019 254.250 C 189.009 254.663 200.063 255.000 213.583 255.000 C 227.104 255.000 238.017 254.627 237.833 254.172 C 237.650 253.716 235.039 249.216 232.031 244.172 C 227.653 236.830 226.101 235.000 224.250 235.000 C 221.193 235.000 220.503 232.861 222.385 229.221 C 223.753 226.576 235.815 218.899 260.250 205.120 C 261.763 204.267 263.000 203.322 263.000 203.020 C 263.000 202.434 248.529 185.853 235.750 171.796 C 231.488 167.107 228.000 162.795 228.000 162.213 C 228.000 161.631 230.328 159.119 233.173 156.630 L 238.347 152.104 235.016 141.052 C 233.184 134.973 231.596 130.000 231.487 130.000 C 231.379 130.000 224.025 136.786 215.145 145.080 "/></g>
<g fill="#FFF" stroke="#000000FF">
<path d="M 253.748 223.251 L 245.116 228.385 247.598 232.443 C 248.963 234.674 251.524 239.082 253.290 242.238 L 256.500 247.976 275.833 247.988 C 286.467 247.995 295.017 247.644 294.833 247.209 C 294.650 246.774 290.914 242.049 286.532 236.709 L 278.564 227.000 273.466 227.000 C 268.566 227.000 268.282 226.846 266.137 223.030 C 264.910 220.846 263.562 218.848 263.143 218.588 C 262.723 218.329 258.496 220.427 253.748 223.251 "/></g>
</svg>
